{
  "asset": {
    "generator": "glTF-Transform v4.0.10",
    "version": "2.0"
  },
  "accessors": [
    {
      "type": "SCALAR",
      "componentType": 5123,
      "count": 141252,
      "bufferView": 0,
      "byteOffset": 0
    },
    {
      "type": "VEC3",
      "componentType": 5126,
      "count": 26212,
      "max": [
        96.46783447265625,
        113.62907409667969,
        35.34331130981445
      ],
      "min": [
        -87.74508666992188,
        -122.2767562866211,
        -148.1270751953125
      ],
      "bufferView": 1,
      "byteOffset": 0
    },
    {
      "type": "VEC2",
      "componentType": 5126,
      "count": 26212,
      "bufferView": 1,
      "byteOffset": 12
    }
  ],
  "bufferViews": [
    {
      "buffer": 0,
      "byteOffset": 0,
      "byteLength": 282504,
      "target": 34963
    },
    {
      "buffer": 0,
      "byteOffset": 282504,
      "byteLength": 524240,
      "byteStride": 20,
      "target": 34962
    }
  ],
  "samplers": [
    {
      "magFilter": 9729,
      "minFilter": 9729,
      "wrapS": 10497,
      "wrapT": 10497
    }
  ],
  "textures": [
    {
      "source": 0,
      "sampler": 0
    }
  ],
  "images": [
    {
      "mimeType": "image/jpeg",
      "uri": "baseColor.jpg"
    }
  ],
  "buffers": [
    {
      "byteLength": 806744
    }
  ],
  "materials": [
    {
      "pbrMetallicRoughness": {
        "baseColorFactor": [
          0.8,
          0.8,
          0.8,
          1
        ],
        "roughnessFactor": 0,
        "metallicFactor": 0,
        "baseColorTexture": {
          "index": 0
        }
      }
    }
  ],
  "meshes": [
    {
      "primitives": [
        {
          "attributes": {
            "POSITION": 1,
            "TEXCOORD_0": 2
          },
          "mode": 4,
          "material": 0,
          "indices": 0
        }
      ]
    }
  ],
  "nodes": [
    {
      "name": "model",
      "mesh": 0
    }
  ],
  "scenes": [
    {
      "nodes": [
        0
      ]
    }
  ],
  "scene": 0
}